# xmcd CD database file
#
# Track frame offsets:
#	150
#	17397
#	36605
#	53866
#
# Disc length: 971 seconds
#
# Revision: 0
# Processed by: cddbd v1.5.1PL0 Copyright (c) Steve Scherf et al.
# Submitted via: CDex 1.51
#
DISCID=2c03c904
DTITLE=北出菜奈 - pureness
DYEAR=2004
DGENRE=JPop
TTITLE0=pureness
TTITLE1=七色
TTITLE2=pureness(instrumental)
TTITLE3=七色(instrumental)
EXTD=YEAR: 2004
EXTT0=
EXTT1=
EXTT2=
EXTT3=
PLAYORDER=
